<svg xmlns="http://www.w3.org/2000/svg" xmlns:xlink="http://www.w3.org/1999/xlink" viewBox="0 0 163 136"><defs><style>.a{fill:url(#a);}.b{fill:url(#b);}.c{fill:#877e78;}.d{fill:#8a807b;}.e{fill:#f6f4f3;}.f{fill:url(#c);}.g{fill:url(#d);}.h{fill:url(#e);}.i{fill:#dfcdb7;}.j{fill:url(#f);}.k{fill:#611216;}.l{fill:url(#g);}.m{fill:url(#h);}.n{fill:url(#i);}.o{fill:url(#j);}.p{fill:url(#k);}</style><linearGradient id="a" x1="-48.6" y1="26.08" x2="234.2" y2="26.08" gradientUnits="userSpaceOnUse"><stop offset="0.28" stop-color="#0d0b0a"/><stop offset="0.72" stop-color="#a39b96"/></linearGradient><linearGradient id="b" x1="33.52" y1="95.94" x2="76.01" y2="20.29" gradientUnits="userSpaceOnUse"><stop offset="0.02" stop-color="#171717"/><stop offset="0.34" stop-color="#2c2826"/><stop offset="0.39" stop-color="#4d4642"/><stop offset="0.81" stop-color="#67605c"/></linearGradient><linearGradient id="c" x1="131.01" y1="60.42" x2="51.09" y2="2" gradientUnits="userSpaceOnUse"><stop offset="0.5" stop-color="#262220"/><stop offset="0.72" stop-color="#a39b96"/></linearGradient><linearGradient id="d" x1="126.9" y1="48.23" x2="33.93" y2="14.84" gradientUnits="userSpaceOnUse"><stop offset="0.1" stop-color="#262220"/><stop offset="0.57" stop-color="#5a524d"/><stop offset="0.64" stop-color="#a89e99"/></linearGradient><linearGradient id="e" x1="104.76" y1="76.98" x2="32.49" y2="32.68" gradientUnits="userSpaceOnUse"><stop offset="0.43" stop-color="#262220"/><stop offset="0.72" stop-color="#a39b96"/></linearGradient><linearGradient id="f" x1="141.57" y1="126.2" x2="138.81" y2="87.2" gradientUnits="userSpaceOnUse"><stop offset="0.02" stop-color="#5c1216"/><stop offset="0.34" stop-color="#c11f2c"/><stop offset="0.64" stop-color="#fa5d6e"/><stop offset="0.91" stop-color="#fcbbbe"/></linearGradient><linearGradient id="g" x1="63.27" y1="130.21" x2="71.22" y2="90.15" gradientUnits="userSpaceOnUse"><stop offset="0.02" stop-color="#040303"/><stop offset="0.34" stop-color="#131212"/><stop offset="0.9" stop-color="#544b47"/></linearGradient><linearGradient id="h" x1="56.4" y1="129.97" x2="64.5" y2="89.17" gradientUnits="userSpaceOnUse"><stop offset="0.02" stop-color="#5c1216"/><stop offset="0.34" stop-color="#c11f2c"/><stop offset="0.64" stop-color="#fa5d6e"/><stop offset="0.89" stop-color="#ffa5ac"/></linearGradient><linearGradient id="i" x1="44.26" y1="124.07" x2="66.65" y2="95.08" gradientUnits="userSpaceOnUse"><stop offset="0.04" stop-color="#ad1a24"/><stop offset="0.34" stop-color="#ec374b"/><stop offset="0.84" stop-color="#fa5568"/></linearGradient><linearGradient id="j" x1="145.99" y1="115.39" x2="104.85" y2="98.09" gradientUnits="userSpaceOnUse"><stop offset="0.22" stop-color="#0a0707"/><stop offset="0.58" stop-color="#5c534e"/><stop offset="0.88" stop-color="#a39b96"/></linearGradient><linearGradient id="k" x1="65.38" y1="112.68" x2="37.52" y2="112.11" gradientUnits="userSpaceOnUse"><stop offset="0.26" stop-color="#823835"/><stop offset="0.5" stop-color="#cb8d81"/><stop offset="0.65" stop-color="#f1e4d6"/></linearGradient></defs><title>audio</title><path class="a" d="M89.8,16.2V6.1L84.1.9,83.8,13,76.7,9.1,9.5,40.2c.6,3.7,1.3,7.3,2,11l78.3-35Z"/><path class="b" d="M79.5,92.1,6.2,102.5a2.6,2.6,0,0,1-2.8-2.9l7.8-48.3a1.2,1.2,0,0,1,1-1L88.8,38.9a1.2,1.2,0,0,1,1.4,1.3L86.6,84.4A8.5,8.5,0,0,1,79.5,92.1Z"/><path class="c" d="M75.9,88.7,6.1,98.4a2.3,2.3,0,0,1-2.6-2.7c2.4-15.1,4.9-30.1,7.3-45.2a1.2,1.2,0,0,1,1-.9l73-10.7a1.1,1.1,0,0,1,1.3,1.2C85,53.9,83.9,67.7,82.7,81.5A7.9,7.9,0,0,1,75.9,88.7Z"/><path class="d" d="M10.3,33.8a5.1,5.1,0,0,0-2.6,6.8l3.1,7L84.3,14.7V.8Z"/><polygon class="e" points="43 19.2 52.8 28.8 63.9 23.9 54 14.3 43 19.2"/><polygon class="e" points="61.3 11.1 71.1 20.6 82.2 15.7 72.3 6.1 61.3 11.1"/><path class="f" d="M102.1,39.3h0Z"/><path class="g" d="M102,39.3h0Z"/><path class="h" d="M115.5,46.5c-4-2.6-24.7-15.3-44-5.8a35.9,35.9,0,0,0-15.9,16A36.8,36.8,0,0,0,51.5,78a7.5,7.5,0,0,0,9.7,6.3h0a7.3,7.3,0,0,0,5.3-7.6A24.7,24.7,0,0,1,69,63.4c2.4-4.5,5.5-7.7,9.3-9.5,12-5.9,27,3.7,28.6,4.8,8.4,5.6,12.5,13.9,14.5,20.4a4,4,0,0,0,4.5,2.9l6.8-.7a4.1,4.1,0,0,0,3.6-5.1A51.6,51.6,0,0,0,115.5,46.5Z"/><path class="i" d="M61.3,94H57.5V83a2.4,2.4,0,0,1,1.4-1,2.4,2.4,0,0,1,2.4,1C61.2,86.6,61.3,90.3,61.3,94Z"/><path class="i" d="M136.8,89.8l-3.6,2.7c-1.1-4.2-2.1-8.5-3.2-12.7l3.3-2.8C134.5,81.3,135.7,85.5,136.8,89.8Z"/><path class="j" d="M159.9,109.7c0,10.3-7.4,21-17.7,21.9s-21.8-10.9-21.3-22.9,10-21.7,21.3-20.8S159.9,99.8,159.9,109.7Z"/><path class="k" d="M148.3,109.7c0,8.9-5.3,20-12.2,20.3s-14.2-10.5-14.2-20.3,7.1-20.6,14.2-20.3S148.3,100.9,148.3,109.7Z"/><path class="l" d="M81.9,113.3c-.2,3.5-.6,10.1-5.8,14.8-6.8,6.2-17.5,5.4-17.9,4s.7-.7,1.4-1.5c2.6-3.3-2.7-8.5-4-19.3-1.8-14.5-1.6-16.4-.1-18.1C59.6,88.7,70,89.7,76.1,95S82.1,109.7,81.9,113.3Z"/><ellipse class="m" cx="60" cy="111.9" rx="17.4" ry="21.9"/><ellipse class="n" cx="53.4" cy="112.3" rx="10.7" ry="18.3"/><ellipse class="o" cx="132.9" cy="109.9" rx="13.9" ry="18.6"/><ellipse class="p" cx="52.1" cy="112.4" rx="4.3" ry="7"/></svg>