<svg xmlns="http://www.w3.org/2000/svg" xmlns:xlink="http://www.w3.org/1999/xlink" viewBox="0 0 250 378"><defs><style>.a{fill:#0e566a;}.b{fill:url(#a);}.c{fill:#f1f4f9;}.d{fill:#1c1f26;}.e{fill:url(#b);}.f{fill:url(#c);}.g{fill:#99caf0;}.h{fill:#f7f5f4;}.i{fill:#837974;}.j{fill:#1633ad;}.k{fill:url(#d);}.l{fill:url(#e);}.m{fill:#e7ecf3;}.n{fill:#d4d9e1;}.o{fill:#eff3fa;}</style><linearGradient id="a" x1="224.15" y1="215.98" x2="22.74" y2="171.01" gradientUnits="userSpaceOnUse"><stop offset="0.15" stop-color="#0e566a"/><stop offset="0.18" stop-color="#67b1c7"/><stop offset="0.74" stop-color="#519eb6"/></linearGradient><linearGradient id="b" x1="225.52" y1="212.84" x2="221.46" y2="212.84" gradientTransform="translate(-11.1 -79.8)" gradientUnits="userSpaceOnUse"><stop offset="0.36" stop-color="#216e85"/><stop offset="0.81" stop-color="#063a4e"/></linearGradient><linearGradient id="c" x1="238.84" y1="202.37" x2="241.35" y2="74.21" gradientTransform="matrix(0.79, -0.61, 0.61, 0.79, -85.1, 325.17)" gradientUnits="userSpaceOnUse"><stop offset="0.26" stop-color="#1d407b"/><stop offset="0.29" stop-color="#72bbed"/></linearGradient><linearGradient id="d" x1="241.09" y1="120.68" x2="212.44" y2="76.94" gradientTransform="matrix(0.79, -0.61, 0.61, 0.79, -85.1, 325.17)" gradientUnits="userSpaceOnUse"><stop offset="0.01" stop-color="#99caf0"/><stop offset="0.81" stop-color="#68b5e0"/></linearGradient><linearGradient id="e" x1="105.81" y1="154.44" x2="41.08" y2="44.27" gradientUnits="userSpaceOnUse"><stop offset="0.13" stop-color="#cbcfd8"/><stop offset="0.21" stop-color="#f3f7fc"/><stop offset="0.26" stop-color="#f1f5fc"/><stop offset="0.42" stop-color="#dde1e9"/><stop offset="0.59" stop-color="#cbcfd8"/><stop offset="0.66" stop-color="#d6dae2"/><stop offset="0.74" stop-color="#f7fbff"/></linearGradient></defs><title>iphone</title><path class="a" d="M79.8,24.6H183.6a20.7,20.7,0,0,1,20.7,20.7V344.1a20.8,20.8,0,0,1-20.8,20.8H76.7a22.6,22.6,0,0,1-22.6-22.6V50.3A25.7,25.7,0,0,1,79.8,24.6Z" transform="translate(46.7 -23.9) rotate(12.9)"/><path class="b" d="M160.5,357.6l67.8-296A22,22,0,0,0,225,44.3a7.6,7.6,0,0,0-4.8-3.2h-.1L119,17.9A25.6,25.6,0,0,0,88.2,37.2L23,321.8a22.6,22.6,0,0,0,17,27.1l104.1,23.8h0a8.5,8.5,0,0,0,6.2-1A22,22,0,0,0,160.5,357.6Z"/><path class="c" d="M78.6,29.3h97.2a14.2,14.2,0,0,1,14.2,14.2V337.1a18.1,18.1,0,0,1-18.1,18.1H71.6a13.7,13.7,0,0,1-13.7-13.7V49.9A20.6,20.6,0,0,1,78.6,29.3Z" transform="translate(46 -22.8) rotate(12.9)"/><rect class="d" x="141.2" y="38.3" width="23" height="3" rx="1.5" transform="translate(12.7 -33.1) rotate(12.9)"/><circle class="d" cx="168.8" cy="43.4" r="1.4"/><rect class="e" x="210.3" y="114.9" width="4.1" height="36.31" rx="1.5" transform="translate(35 -44) rotate(12.9)"/><path class="f" d="M210.9,228.7,179.6,220a4.2,4.2,0,0,0-3.6.7c-13.2,10.6-45.8,35.4-55.1,42.6a3.1,3.1,0,0,0-.8,4.1l45.6,77.7a3.4,3.4,0,0,0,5,1c23.7-18.3,63.9-49.8,74.4-57.6a3.3,3.3,0,0,0,.8-4.5q-16.5-27-33.2-54A3,3,0,0,0,210.9,228.7Z"/><path class="g" d="M207.7,227.9l-30.6-8.5a4.2,4.2,0,0,0-3.6.7c-12.9,10.3-44.8,34.7-54,41.7a3.2,3.2,0,0,0-.8,4.1L163.4,342a3.3,3.3,0,0,0,4.9.9c23.2-17.9,62.6-48.7,72.9-56.4a3.4,3.4,0,0,0,.8-4.4l-32.5-52.9A3.4,3.4,0,0,0,207.7,227.9Z"/><path class="h" d="M153.3,294.5,177.2,336,231,294.3l-25.4-40.8Z"/><path class="i" d="M200.9,279.2l-27.7,21.4c-.6-1.2-1.1-2.5-1.7-3.8l27.7-21.3C199.8,276.7,200.3,278,200.9,279.2Z"/><path class="i" d="M209.2,291.7l-27.7,21.4c-.5-1.3-1.1-2.5-1.6-3.8l27.7-21.4C208.1,289.2,208.7,290.5,209.2,291.7Z"/><circle class="j" cx="167.2" cy="330.5" r="3" transform="translate(-42 24.9) rotate(-7.6)"/><circle class="j" cx="231.3" cy="281" r="3" transform="translate(-35 32.9) rotate(-7.6)"/><path class="h" d="M186.4,253.1,168.7,224h0l-34.3,26.5,18,28.9ZM165.3,234l9.9,17.7-7.9,6.1-9.9-17.7Z"/><path class="k" d="M188.6,253.3H187l-40.8,30.4L128.4,255l-.8.7L145.9,285Z"/><path class="l" d="M131.5,111c-1.8-.6-21.4-7.1-27.9-27.6s6.1-37.4,7.2-38.8l.3-.3A36.6,36.6,0,0,0,60,49H58c-11.4-1.3-23.6-.5-33.2,5.6S9.4,71.2,7.8,82.2s.8,22.3,5.3,32.4,11.1,19.3,18.1,28a73.1,73.1,0,0,0,10.1,10.7l34.9,1.6a25.4,25.4,0,0,1,4.5-1.3c5.3-.9,10.7.7,15.9,1.8s11,1.8,15.8-.8,6.6-6.2,8.7-10.2a101.5,101.5,0,0,0,10.6-32.9Z"/><path class="m" d="M55.3,52.8a35.2,35.2,0,0,1,49.4-4.6l-.2.3c-1.1,1.3-13.4,17.6-7,38s25.3,26.5,27,27l.2.5a102.5,102.5,0,0,1-10.3,32.3c-2,3.9-4.5,7.9-8.4,10s-10.2,1.8-15.3.7-10.2-2.6-15.4-1.7-11.1,5.2-17.2,6.5-12.4-.8-17.5-4.3-9.3-8.2-13.1-13C20.7,136,14.3,127,9.9,117.1S3.2,96,4.8,85.3s7.3-21.2,16.5-27,21-6.8,32-5.5Z"/><path class="n" d="M72.2,4.7l-7.1.2h-.2a35.6,35.6,0,0,0-17,41.3h.4A26,26,0,0,0,68.2,35.1c3.7-5.3,4.6-11,5.2-15A44.9,44.9,0,0,0,73,5Z"/><path class="o" d="M65,27A37.7,37.7,0,0,0,66.2,4.8H64.9a35.6,35.6,0,0,0-17,41.3L49,46A37.3,37.3,0,0,0,65,27Z"/></svg>