
<svg xmlns="http://www.w3.org/2000/svg" xmlns:xlink="http://www.w3.org/1999/xlink" viewBox="0 0 145 135"><defs><style>.a{fill:url(#a);}.b{fill:url(#b);}.c{fill:url(#c);}.d{fill:url(#d);}.e{fill:url(#e);}.f{fill:url(#f);}.g{fill:url(#g);}.h{fill:url(#h);}.i{fill:#ffb965;}</style><linearGradient id="a" x1="16.04" y1="109.31" x2="84.58" y2="109.31" gradientUnits="userSpaceOnUse"><stop offset="0.52" stop-color="#426b9c"/><stop offset="0.78" stop-color="#565d68"/></linearGradient><linearGradient id="b" x1="1.28" y1="116.67" x2="63.57" y2="116.67" gradientUnits="userSpaceOnUse"><stop offset="0.11" stop-color="#24456a"/><stop offset="1" stop-color="#e0edff"/></linearGradient><linearGradient id="c" x1="62.01" y1="103.22" x2="117.94" y2="103.22" gradientUnits="userSpaceOnUse"><stop offset="0.07" stop-color="#253f5e"/><stop offset="0.78" stop-color="#cddef8"/></linearGradient><linearGradient id="d" x1="6.73" y1="93.01" x2="50.4" y2="93.01" gradientUnits="userSpaceOnUse"><stop offset="0.05" stop-color="#24456a"/><stop offset="0.82" stop-color="#e0edff"/></linearGradient><linearGradient id="e" x1="57.96" y1="82.42" x2="91.87" y2="82.42" gradientUnits="userSpaceOnUse"><stop offset="0.22" stop-color="#61656b"/><stop offset="0.72" stop-color="#e0edff"/></linearGradient><linearGradient id="f" x1="38.26" y1="113.97" x2="44.53" y2="78.27" gradientUnits="userSpaceOnUse"><stop offset="0.41" stop-color="#28374c"/><stop offset="0.86" stop-color="#1c2c3f"/></linearGradient><linearGradient id="g" x1="69.74" y1="74.41" x2="112.25" y2="74.41" gradientUnits="userSpaceOnUse"><stop offset="0.11" stop-color="#24456a"/><stop offset="0.72" stop-color="#e0edff"/></linearGradient><linearGradient id="h" x1="-13.88" y1="67.06" x2="94.88" y2="78.59" gradientUnits="userSpaceOnUse"><stop offset="0.2" stop-color="#7c9ecc"/><stop offset="0.36" stop-color="#1b2f45"/><stop offset="0.72" stop-color="#1d3147"/><stop offset="0.99" stop-color="#9fbce5"/></linearGradient></defs><title>nowatermarc</title><path class="a" d="M64.3,132.2h0a79.4,79.4,0,0,0,2.2-20.7A82.5,82.5,0,0,0,62,86.4l-46,15,47.6,30.5Z"/><path class="b" d="M63.6,131.9,16,101.4,1.3,106.2Z"/><path class="c" d="M99.3,74.2,62,86.4l2.3,45.8Z"/><path class="d" d="M14.8,79.7,1.3,106.2l24,3,19.7-4a34.9,34.9,0,0,0-3.5-12.7,34.9,34.9,0,0,0-17-15.7Z"/><path class="e" d="M69.7,63.4l-9.2,2.7a60.9,60.9,0,0,0,.2,35.4L91.9,85.4Z"/><path class="f" d="M60.7,101.5l-.2-35.4-36,10.7L45,105.2l14.3-3Z"/><path class="g" d="M92.3,85.2l7-11L73.8,63.7l-4.1-.3,22.2,22Z"/><path class="h" d="M43.1,65c-15,3.7-26.7,9.8-28.3,14.5l16,5.6a102.5,102.5,0,0,0,16.6-2.6C61.5,79,72.6,73.4,75.3,68.8l-2-5.1C68.3,61.3,56.4,61.7,43.1,65Z"/><path class="i" d="M123.6,43.8c1.4-13.1,2.9-26.1,4.4-39.1a1.8,1.8,0,0,0-2.1-1.9l-.7.2A1.7,1.7,0,0,0,124,4.1l-8.7,26.1-10.7-7.4a5.9,5.9,0,0,0-5-.8h-.1a5.9,5.9,0,0,0-4.3,5.6l-.9,29.8a1.8,1.8,0,0,0,1.8,1.8h0a1.7,1.7,0,0,0,1.6-1.1l6.6-17.9,10,7.5a4,4,0,0,0,4.2.6l2.5-1.1A4.4,4.4,0,0,0,123.6,43.8Z"/><path class="i" d="M126.3,87.3l17-11.4a.9.9,0,0,0,0-1.5l-.2-.2a.8.8,0,0,0-.9-.1l-13.3,5.3c-.3-2.3-.5-4.5-.7-6.8a3,3,0,0,0-1.4-2.2h0a3.2,3.2,0,0,0-3.7.2L111,80.2a.9.9,0,0,0-.2,1.3h0a1,1,0,0,0,1,.3l9.4-3.4.4,6.5a2.2,2.2,0,0,0,1.2,1.9l1.2.6A2.4,2.4,0,0,0,126.3,87.3Z"/><path class="i" d="M82.6,36.2c-2.5-8.3-5.2-16.9-7.9-25.9-.3-.8-1.1-1.2-1.6-.7l-.3.3a.9.9,0,0,0-.3,1l2.6,19.2-7.5-1.8a3.1,3.1,0,0,0-2.9.9h-.1a4.2,4.2,0,0,0-.6,4.7l7.8,18.3a.9.9,0,0,0,1.3.5h0a.9.9,0,0,0,.5-1.1c-.4-4.1-.9-8.2-1.4-12.4L79.1,41a2.1,2.1,0,0,0,2.2-.8l.9-1.3A2.9,2.9,0,0,0,82.6,36.2Z"/></svg>