<svg xmlns="http://www.w3.org/2000/svg" xmlns:xlink="http://www.w3.org/1999/xlink" viewBox="0 0 137 125"><defs><style>.a{fill:url(#a);}.b{fill:url(#b);}.c{fill:url(#c);}.d{fill:url(#d);}.e{fill:url(#e);}.f{fill:url(#f);}.g{fill:#ec5d86;}.h{fill:url(#g);}.i{fill:#95644e;}.j{fill:url(#h);}</style><linearGradient id="a" x1="63.7" y1="34.48" x2="30.07" y2="3.43" gradientUnits="userSpaceOnUse"><stop offset="0.1" stop-color="#cf3d5a"/><stop offset="0.21" stop-color="#f89dbb"/><stop offset="0.42" stop-color="#f4a8c1"/></linearGradient><linearGradient id="b" x1="59.35" y1="111.82" x2="59.58" y2="51.41" gradientUnits="userSpaceOnUse"><stop offset="0.18" stop-color="#f8d086"/><stop offset="0.53" stop-color="#f9ce83"/><stop offset="0.94" stop-color="#f2bd74"/></linearGradient><linearGradient id="c" x1="81.66" y1="111.91" x2="81.89" y2="51.5" xlink:href="#b"/><linearGradient id="d" x1="94.59" y1="46.75" x2="93.53" y2="24.1" gradientUnits="userSpaceOnUse"><stop offset="0.24" stop-color="#ce7f52"/><stop offset="0.34" stop-color="#a26542"/><stop offset="0.46" stop-color="#fbf5e6"/></linearGradient><linearGradient id="e" x1="79.72" y1="52.13" x2="112.03" y2="66.19" gradientUnits="userSpaceOnUse"><stop offset="0" stop-color="#faf2dd"/><stop offset="0.37" stop-color="#dc955c"/><stop offset="0.61" stop-color="#be7e4f"/><stop offset="0.85" stop-color="#c38c6e"/></linearGradient><linearGradient id="f" x1="24.38" y1="76.72" x2="24.57" y2="55.09" gradientUnits="userSpaceOnUse"><stop offset="0.1" stop-color="#12498d"/><stop offset="1" stop-color="#a2d8ff"/></linearGradient><linearGradient id="g" x1="56.04" y1="48.55" x2="74.03" y2="19.54" gradientUnits="userSpaceOnUse"><stop offset="0.15" stop-color="#e2424c"/><stop offset="0.51" stop-color="#cf3d5a"/><stop offset="0.57" stop-color="#f9acca"/><stop offset="0.92" stop-color="#f9acca"/></linearGradient><linearGradient id="h" x1="67.98" y1="97.92" x2="68.27" y2="58.37" gradientUnits="userSpaceOnUse"><stop offset="0.4" stop-color="#c58a4d"/><stop offset="0.5" stop-color="#f7e5ad"/><stop offset="0.67" stop-color="#f8e9c4"/></linearGradient></defs><title>unlimited</title><path class="a" d="M61.7,35.3,49.3,39.5a.2.2,0,0,1-.2-.2l4.2-13.5,9.5-10.6C62.4,21.9,62.1,28.6,61.7,35.3Z"/><path class="b" d="M92.7,62h-33c-2-3.6-4.1-7.1-6.1-10.6H27.1c-.3,20.1-.7,40.2-1,60.3L59.6,91.6H92.7Z"/><path class="c" d="M89.5,82.1c-.5-4.7-5.6-6.7-7.4-13.8a20.3,20.3,0,0,1-.5-6.3H74.1a15.2,15.2,0,0,0,.6,6.3c.8,2.5,1.7,5.3,4.3,7.4.9.8,2.9,2.1,3.1,4.3a2.9,2.9,0,0,1,0,1c-.2,2.1-2.4,6.9-4.2,10.6h6.9C89,87.5,89.8,84.3,89.5,82.1Z"/><path class="d" d="M94.3,40.3Z"/><path class="e" d="M110.3,35.6c-7.1-1.5-27.6-5.2-27.4,7.5,0,4.6,4.3,8.8,7.4,11.7l3.2,2.9L92,57.2a15.9,15.9,0,0,0-6.5-.3c-3.6.7-6.7,2.9-7.8,6.4C75.2,71.2,83,80.8,88.4,85.6c2.8,2.6,7.1-1.6,4.2-4.2A31.6,31.6,0,0,1,85,71.6c-1.4-3-2.2-7.7,1.8-8.8,2.4-.6,5.4.7,7.6,1.5s6.2,2.5,8.6.5,1.8-4.6.4-6.5c-3-3.9-8.1-6.5-11.4-10.2-.9-1-3-3.2-3-4.6s3.6-3.4,5.5-3.6c4.7-.5,9.7.5,14.2,1.5S114.1,36.4,110.3,35.6Z"/><circle class="f" cx="24.5" cy="65.7" r="10.8"/><circle class="g" cx="118.6" cy="77.3" r="5"/><path class="h" d="M62.8,15.2,58.6,29,49.3,39.3a.3.3,0,0,0,.1.5l16.1,9a.8.8,0,0,0,.9-.1l9.1-9.1,5.3-13.8Z"/><path class="i" d="M30,34.4h0Z"/><path class="i" d="M30,34.4h0Z"/><path class="j" d="M109.9,79a2.5,2.5,0,0,0-2.5-2.5H44.6A2.5,2.5,0,0,0,42.1,79l-16,32.7h0l.8,1H91.4a2.3,2.3,0,0,0,1.9-1.1h-.1C98.7,101.3,109.9,79.6,109.9,79Z"/></svg>